<svg width="25" height="25" viewBox="0 0 25 25" fill="none" xmlns="http://www.w3.org/2000/svg">
<path d="M18.5193 11.5415C18.139 11.3935 17.884 11.0284 17.884 10.5775V10.4789C17.884 9.88733 17.64 9.64088 17.0555 9.64088H16.9582C16.373 9.64088 15.9345 9.19718 15.9345 8.60561V8.50703C15.9345 7.91547 15.6906 7.66902 15.1054 7.66902H15.0081C14.4236 7.66902 13.9843 7.22532 13.9843 6.63385V6.53517C13.9843 5.9437 14.4236 5.5 15.0081 5.5H15.1054C15.6906 5.5 16.1291 5.9437 16.1291 6.53517V6.63385C16.1291 7.22532 16.373 7.47186 16.9582 7.47186H17.0555C17.64 7.47186 18.0793 7.91547 18.0793 8.50703V8.60561C18.0793 9.19718 18.3225 9.44363 18.9077 9.44363H19.005C19.5902 9.44363 20.0287 9.88733 20.0287 10.4789V10.5775C20.0287 11.1198 20.3213 11.5141 20.9058 11.5141H20.9544C21.4659 11.5141 21.8809 11.9334 21.8809 12.4507V12.5493C21.8809 13.0666 21.4659 13.4859 20.9544 13.4859H20.9058C20.3213 13.4859 20.0287 13.8802 20.0287 14.4225V14.5211C20.0287 15.1127 19.5902 15.5564 19.005 15.5564H18.9077C18.3225 15.5564 18.0793 15.8028 18.0793 16.3944V16.493C18.0793 17.0845 17.64 17.5281 17.0555 17.5281H16.9582C16.373 17.5281 16.1291 17.7747 16.1291 18.3662V18.4648C16.1291 19.0563 15.6906 19.5 15.1054 19.5H15.0081C14.4236 19.5 13.9843 19.0563 13.9843 18.4648V18.3662C13.9843 17.7747 14.4236 17.331 15.0081 17.331H15.1054C15.6906 17.331 15.9345 17.0845 15.9345 16.493V16.3944C15.9345 15.8028 16.373 15.3591 16.9582 15.3591H17.0555C17.64 15.3591 17.884 15.1127 17.884 14.5211V14.4225C17.884 13.9622 18.1493 13.5916 18.5429 13.4497H2.82425C2.30318 13.4497 1.88086 13.0225 1.88086 12.4956C1.88086 11.9687 2.30318 11.5415 2.82425 11.5415H18.5193Z" fill="#FF0037"/>
</svg>
