<svg width="13" height="49" viewBox="0 0 13 49" fill="none" xmlns="http://www.w3.org/2000/svg">
<path d="M10.1 46.22C10.1 47.66 10.94 48.5 12.38 48.5V0.5C10.94 0.5 10.1 1.34 10.1 2.78V2.9C10.1 4.34 9.14 5.06 7.82 5.06H7.58C6.14 5.06 5.06 6.14 5.06 7.58V7.82C5.06 9.14 4.34 10.1 2.9 10.1H2.78C1.34 10.1 0.5 10.94 0.5 12.38V36.62C0.5 38.06 1.34 38.9 2.78 38.9H2.9C4.34 38.9 5.06 39.86 5.06 41.18V41.42C5.06 42.86 6.14 43.94 7.58 43.94H7.82C9.14 43.94 10.1 44.66 10.1 46.1V46.22Z" fill="white"/>
</svg>
