<svg width="627" height="212" viewBox="0 0 627 212" fill="none" xmlns="http://www.w3.org/2000/svg">
<mask id="path-1-outside-1_752_3211" maskUnits="userSpaceOnUse" x="-2" y="-1.5" width="631" height="215" fill="black">
<rect fill="white" x="-2" y="-1.5" width="631" height="215"/>
<path d="M33.4573 207.5H0.06942V0.672694H33.4573V207.5ZM111.087 207.5H77.6989V0.672694H157.918C205.636 0.672694 231.194 24.7533 231.194 63.4596C231.194 102.166 205.636 126.246 157.918 126.246H111.087V207.5ZM111.087 32.14V94.7791H157.032C184.067 94.7791 196.477 84.7332 196.477 63.4596C196.477 42.1859 184.067 32.14 157.032 32.14H111.087ZM384.879 211.193C354.889 211.193 330.661 199.966 312.933 178.101L334.206 157.271C346.468 171.748 366.265 180.612 384.731 180.612C411.471 180.612 424.028 163.475 424.028 145.747C424.028 127.871 413.539 111.178 376.606 111.178H329.036L330.956 0.672694H446.779V30.9581H360.355L359.321 80.8921H386.504C434.961 80.8921 457.416 110.587 457.416 142.94C457.416 187.704 423.585 211.193 384.879 211.193ZM594.629 207.5H562.57V167.316H470.237V142.645L547.649 0.968158H583.992L508.795 136.883H562.57V81.3353H594.629V136.883H626.244V167.316H594.629V207.5Z"/>
</mask>
<path d="M33.4573 207.5V209.5H35.4573V207.5H33.4573ZM0.0694199 207.5H-1.93058V209.5H0.0694199V207.5ZM0.0694199 0.672691V-1.32731H-1.93058V0.672691H0.0694199ZM33.4573 0.672691H35.4573V-1.32731H33.4573V0.672691ZM33.4573 205.5H0.0694199V209.5H33.4573V205.5ZM2.06942 207.5V0.672691H-1.93058V207.5H2.06942ZM0.0694199 2.67269H33.4573V-1.32731H0.0694199V2.67269ZM31.4573 0.672691V207.5H35.4573V0.672691H31.4573ZM111.087 207.5V209.5H113.087V207.5H111.087ZM77.6989 207.5H75.6989V209.5H77.6989V207.5ZM77.6989 0.672691V-1.32731H75.6989V0.672691H77.6989ZM111.087 126.246V124.246H109.087V126.246H111.087ZM111.087 32.14V30.14H109.087V32.14H111.087ZM111.087 94.7791H109.087V96.7791H111.087V94.7791ZM111.087 205.5H77.6989V209.5H111.087V205.5ZM79.6989 207.5V0.672691H75.6989V207.5H79.6989ZM77.6989 2.67269H157.918V-1.32731H77.6989V2.67269ZM157.918 2.67269C181.463 2.67269 199.252 8.61335 211.13 19.0535C222.973 29.4628 229.194 44.5673 229.194 63.4596H233.194C233.194 43.6456 226.636 27.3567 213.771 16.049C200.941 4.77234 182.092 -1.32731 157.918 -1.32731V2.67269ZM229.194 63.4596C229.194 82.3518 222.973 97.4563 211.13 107.866C199.252 118.306 181.463 124.246 157.918 124.246V128.246C182.092 128.246 200.941 122.147 213.771 110.87C226.636 99.5625 233.194 83.2735 233.194 63.4596H229.194ZM157.918 124.246H111.087V128.246H157.918V124.246ZM109.087 126.246V207.5H113.087V126.246H109.087ZM109.087 32.14V94.7791H113.087V32.14H109.087ZM111.087 96.7791H157.032V92.7791H111.087V96.7791ZM157.032 96.7791C170.732 96.7791 181.138 94.2458 188.14 88.6604C195.239 82.9977 198.477 74.4981 198.477 63.4596H194.477C194.477 73.6947 191.51 80.8549 185.645 85.5335C179.683 90.2895 170.367 92.7791 157.032 92.7791V96.7791ZM198.477 63.4596C198.477 52.421 195.239 43.9214 188.14 38.2587C181.138 32.6734 170.732 30.14 157.032 30.14V34.14C170.367 34.14 179.683 36.6296 185.645 41.3856C191.51 46.0643 194.477 53.2244 194.477 63.4596H198.477ZM157.032 30.14H111.087V34.14H157.032V30.14ZM312.933 178.101L311.533 176.672L310.232 177.946L311.379 179.361L312.933 178.101ZM334.206 157.271L335.732 155.978L334.343 154.337L332.807 155.841L334.206 157.271ZM329.036 111.178L327.036 111.143L327.001 113.178H329.036V111.178ZM330.956 0.672691V-1.32731H328.991L328.956 0.637939L330.956 0.672691ZM446.779 0.672691H448.779V-1.32731H446.779V0.672691ZM446.779 30.9581V32.9581H448.779V30.9581H446.779ZM360.355 30.9581V28.9581H358.396L358.356 30.9167L360.355 30.9581ZM359.321 80.8921L357.321 80.8507L357.279 82.8921H359.321V80.8921ZM384.879 209.193C355.453 209.193 331.811 198.208 314.486 176.841L311.379 179.361C329.511 201.723 354.325 213.193 384.879 213.193V209.193ZM314.332 179.53L335.606 158.7L332.807 155.841L311.533 176.672L314.332 179.53ZM332.68 158.563C345.331 173.5 365.69 182.612 384.731 182.612V178.612C366.839 178.612 347.606 169.997 335.732 155.978L332.68 158.563ZM384.731 182.612C398.546 182.612 408.909 178.174 415.823 171.24C422.721 164.323 426.028 155.079 426.028 145.747H422.028C422.028 154.144 419.057 162.332 412.991 168.416C406.941 174.483 397.656 178.612 384.731 178.612V182.612ZM426.028 145.747C426.028 136.416 423.279 127.154 415.493 120.261C407.749 113.407 395.336 109.178 376.606 109.178V113.178C394.809 113.178 406.108 117.296 412.842 123.257C419.533 129.18 422.028 137.203 422.028 145.747H426.028ZM376.606 109.178H329.036V113.178H376.606V109.178ZM331.035 111.212L332.956 0.707451L328.956 0.637939L327.036 111.143L331.035 111.212ZM330.956 2.67269H446.779V-1.32731H330.956V2.67269ZM444.779 0.672691V30.9581H448.779V0.672691H444.779ZM446.779 28.9581H360.355V32.9581H446.779V28.9581ZM358.356 30.9167L357.321 80.8507L361.321 80.9335L362.355 30.9995L358.356 30.9167ZM359.321 82.8921H386.504V78.8921H359.321V82.8921ZM386.504 82.8921C410.313 82.8921 427.502 90.1775 438.73 101.21C449.968 112.253 455.416 127.226 455.416 142.94H459.416C459.416 126.301 453.637 110.25 441.533 98.357C429.419 86.4541 411.152 78.8921 386.504 78.8921V82.8921ZM455.416 142.94C455.416 164.774 447.187 181.272 434.356 192.339C421.487 203.438 403.844 209.193 384.879 209.193V213.193C404.62 213.193 423.246 207.204 436.969 195.368C450.73 183.498 459.416 165.87 459.416 142.94H455.416ZM594.629 207.5V209.5H596.629V207.5H594.629ZM562.57 207.5H560.57V209.5H562.57V207.5ZM562.57 167.316H564.57V165.316H562.57V167.316ZM470.237 167.316H468.237V169.316H470.237V167.316ZM470.237 142.645L468.482 141.686L468.237 142.134V142.645H470.237ZM547.649 0.968155V-1.03185H546.463L545.894 0.00917053L547.649 0.968155ZM583.992 0.968155L585.742 1.93637L587.384 -1.03185H583.992V0.968155ZM508.795 136.883L507.045 135.915L505.403 138.883H508.795V136.883ZM562.57 136.883V138.883H564.57V136.883H562.57ZM562.57 81.3353V79.3353H560.57V81.3353H562.57ZM594.629 81.3353H596.629V79.3353H594.629V81.3353ZM594.629 136.883H592.629V138.883H594.629V136.883ZM626.244 136.883H628.244V134.883H626.244V136.883ZM626.244 167.316V169.316H628.244V167.316H626.244ZM594.629 167.316V165.316H592.629V167.316H594.629ZM594.629 205.5H562.57V209.5H594.629V205.5ZM564.57 207.5V167.316H560.57V207.5H564.57ZM562.57 165.316H470.237V169.316H562.57V165.316ZM472.237 167.316V142.645H468.237V167.316H472.237ZM471.992 143.604L549.404 1.92715L545.894 0.00917053L468.482 141.686L471.992 143.604ZM547.649 2.96815H583.992V-1.03185H547.649V2.96815ZM582.242 -6.10352e-05L507.045 135.915L510.545 137.851L585.742 1.93637L582.242 -6.10352e-05ZM508.795 138.883H562.57V134.883H508.795V138.883ZM564.57 136.883V81.3353H560.57V136.883H564.57ZM562.57 83.3353H594.629V79.3353H562.57V83.3353ZM592.629 81.3353V136.883H596.629V81.3353H592.629ZM594.629 138.883H626.244V134.883H594.629V138.883ZM624.244 136.883V167.316H628.244V136.883H624.244ZM626.244 165.316H594.629V169.316H626.244V165.316ZM592.629 167.316V207.5H596.629V167.316H592.629Z" fill="url(#paint0_linear_752_3211)" mask="url(#path-1-outside-1_752_3211)"/>
<defs>
<linearGradient id="paint0_linear_752_3211" x1="-28" y1="272.5" x2="673.025" y2="265.624" gradientUnits="userSpaceOnUse">
<stop stop-color="#FFBD6D"/>
<stop offset="1" stop-color="#FF8657"/>
</linearGradient>
</defs>
</svg>
