<svg width="54" height="48" viewBox="0 0 54 48" fill="none" xmlns="http://www.w3.org/2000/svg">
<path fill-rule="evenodd" clip-rule="evenodd" d="M43.1442 45.4667V45.3333C43.1442 43.7333 44.2103 42.9333 45.6762 42.9333H45.9427C47.5419 42.9333 48.7412 41.7333 48.7412 40.1333V39.8667C48.7412 38.4 49.5408 37.3333 51.14 37.3333H51.2732C52.8724 37.3333 53.8052 36.4 53.8052 34.8V13.2C53.8052 11.6 52.8724 10.6667 51.2732 10.6667H51.14C49.5408 10.6667 48.7412 9.6 48.7412 8.13333V7.86667C48.7412 6.26667 47.5419 5.06667 45.9427 5.06667H45.6762C44.2103 5.06667 43.1442 4.26667 43.1442 2.66667V2.53333C43.1442 0.933333 42.2114 0 40.6122 0H13.6931C12.0939 0 11.1611 0.933331 11.1611 2.53333V2.66666C11.1611 4.26666 10.0949 5.06666 8.62906 5.06666H8.36253C6.76337 5.06666 5.564 6.26666 5.564 7.86666V8.13333C5.564 9.6 4.76442 10.6667 3.16526 10.6667H3.032C1.43284 10.6667 0.500001 11.6 0.500001 13.2L0.5 34.8C0.5 36.4 1.43284 37.3333 3.032 37.3333H3.16526C4.76442 37.3333 5.564 38.4 5.564 39.8667V40.1333C5.564 41.7333 6.76337 42.9333 8.36253 42.9333H8.62905C10.0949 42.9333 11.1611 43.7333 11.1611 45.3333V45.4667C11.1611 47.0667 12.0939 48 13.6931 48H40.6122C42.2114 48 43.1442 47.0667 43.1442 45.4667ZM43.4162 41.1395C43.4162 42.684 42.5738 43.8073 40.8889 43.8073H12.8072C11.1223 43.8073 10.2798 42.684 10.2798 41.1395V40.8587C10.2798 39.1738 9.01612 37.9101 7.33122 37.9101H7.05041C5.50591 37.9101 4.38264 37.0677 4.38264 35.3828L4.38264 12.9174C4.38264 11.2325 5.50591 10.39 7.05041 10.39H7.33122C9.01612 10.39 10.2798 9.12635 10.2798 7.44145V7.16063C10.2798 5.61613 11.1223 4.49287 12.8072 4.49287L40.8889 4.49287C42.5738 4.49287 43.4162 5.61614 43.4162 7.16063V7.44145C43.4162 9.12635 44.6799 10.39 46.3648 10.39H46.6456C48.1901 10.39 49.3134 11.2325 49.3134 12.9174V35.3828C49.3134 37.0677 48.1901 37.9101 46.6456 37.9101H46.3648C44.6799 37.9101 43.4162 39.1738 43.4162 40.8587V41.1395Z" fill="url(#paint0_linear_574_3036)"/>
<path d="M12.1651 16.1787L12.1651 19.4033C12.101 19.9445 11.7566 20.3206 11.1319 20.3206H9.65882C8.96271 20.3206 8.55664 20.7292 8.55664 21.4297V33.2208C8.55664 33.9213 8.96271 34.3299 9.65882 34.3299H11.1319C11.828 34.3299 12.1761 34.7969 12.1761 35.4389V35.5557C12.1761 36.2562 12.6982 36.7815 13.3943 36.7815H13.5103C14.1484 36.7815 14.6125 37.1317 14.6125 37.8322V37.8906C14.6125 38.591 15.0185 38.9996 15.7146 38.9996H25.113L24.0517 38.2213L22.2121 36.7815L20.8678 35.4389V30.2969L17.4716 29.9431L15.2075 27.5375V25.3441L14.6969 23.8869L15.2783 23.7876V20.0376L15.7947 19.5165L16.8348 19.0948L17.4106 18.0801L17.9952 17.632L23.981 17.632L26.7404 20.5329L29.4998 17.632L35.4856 17.632L36.401 18.663L36.6459 19.0948L36.8621 19.1824L38.061 20.5329V23.7876H38.2733V25.9809L37.1412 28.3866L35.3016 30.2969H32.613V35.4389L31.2686 36.7815L29.429 38.2213L28.3677 38.9996H37.7661C38.4622 38.9996 38.8683 38.591 38.8683 37.8906V37.8322C38.8683 37.1317 39.3324 36.7815 39.9705 36.7815H40.0865C40.7826 36.7815 41.3047 36.2562 41.3047 35.5557V35.4389C41.3047 34.7969 41.6527 34.3299 42.3489 34.3299H43.6097C44.3058 34.3299 44.7119 33.9213 44.7119 33.2208V21.4297C44.7119 20.7292 44.3058 20.3206 43.6097 20.3206H42.3489C41.7242 20.3206 41.3798 19.9445 41.3157 19.4033V16.1787C41.3157 15.3085 40.8055 14.8009 39.931 14.8009H39.8582C38.9836 14.8009 38.5464 14.2208 38.5464 13.4232V13.2782C38.5464 12.4081 37.8905 11.7554 37.016 11.7554H36.8702C36.0686 11.7554 35.4856 11.3204 35.4856 10.4502V10.3777C35.4856 9.50758 34.9754 9 34.1009 9L19.3799 9C18.5053 9 17.9952 9.50758 17.9952 10.3777V10.4502C17.9952 11.3204 17.4122 11.7554 16.6106 11.7554H16.4648C15.5903 11.7554 14.9344 12.4081 14.9344 13.2782V13.4232C14.9344 14.2208 14.4971 14.8009 13.6226 14.8009H13.5497C12.6752 14.8009 12.1651 15.3085 12.1651 16.1787Z" fill="black"/>
<path d="M14.7097 18.3861C14.9826 18.659 14.9826 18.9773 14.7097 19.2502L14.6643 19.2957C14.3914 19.5686 14.073 19.5686 13.8001 19.2957L12.8678 18.3633C12.5949 18.0905 12.2765 18.1359 12.0264 18.3861L11.9809 18.4316C11.708 18.7044 11.2987 18.7044 11.0258 18.4316L10.9803 18.3861C10.7075 18.1132 10.48 18.1132 10.2072 18.3861L10.1617 18.4316C9.8888 18.7044 9.8888 18.9318 10.1617 19.2047L10.2072 19.2502C10.48 19.5231 10.48 19.9324 10.2072 20.2053L10.1617 20.2508C9.91154 20.5009 9.86606 20.8193 10.1389 21.0922L11.0713 22.0245C11.3442 22.2974 11.3442 22.6158 11.0713 22.8887L11.0258 22.9341C10.7529 23.207 10.4346 23.207 10.1617 22.9341L9.20659 21.9791C8.93371 21.7062 8.93371 21.3878 9.20659 21.1149L9.22933 21.0922C9.50221 20.8193 9.45673 20.5009 9.20659 20.2508L9.16111 20.2053C8.88823 19.9324 8.88823 19.5231 9.16111 19.2502L9.20659 19.2047C9.47947 18.9318 9.47947 18.7044 9.20659 18.4316L9.16111 18.3861C8.9476 18.1726 8.9476 17.8264 9.16111 17.6129L9.38851 17.3855C9.60202 17.172 9.94818 17.172 10.1617 17.3855L10.2072 17.431C10.48 17.7039 10.7075 17.7039 10.9803 17.431L11.0258 17.3855C11.2987 17.1126 11.708 17.1126 11.9809 17.3855L12.0264 17.431C12.2765 17.6811 12.5949 17.7266 12.8678 17.4537L12.8905 17.431C13.1634 17.1581 13.4818 17.1581 13.7547 17.431L14.7097 18.3861Z" fill="black"/>
<path d="M38.634 18.3158C38.3611 18.5887 38.3611 18.907 38.634 19.1799L38.6795 19.2254C38.9524 19.4983 39.2707 19.4983 39.5436 19.2254L40.476 18.293C40.7489 18.0201 41.0672 18.0656 41.3174 18.3158L41.3628 18.3612C41.6357 18.6341 42.0451 18.6341 42.3179 18.3613L42.3634 18.3158C42.6363 18.0429 42.8637 18.0429 43.1366 18.3158L43.1821 18.3612C43.455 18.6341 43.455 18.8615 43.1821 19.1344L43.1366 19.1799C42.8637 19.4528 42.8637 19.8621 43.1366 20.135L43.1821 20.1805C43.4322 20.4306 43.4777 20.749 43.2048 21.0219L42.2725 21.9542C41.9996 22.2271 41.9996 22.5455 42.2725 22.8184L42.3179 22.8638C42.5908 23.1367 42.9092 23.1367 43.1821 22.8638L44.1372 21.9087C44.41 21.6359 44.41 21.3175 44.1372 21.0446L44.1144 21.0219C43.8415 20.749 43.887 20.4306 44.1372 20.1805L44.1826 20.135C44.4555 19.8621 44.4555 19.4528 44.1826 19.1799L44.1372 19.1344C43.8643 18.8615 43.8643 18.6341 44.1372 18.3613L44.1826 18.3158C44.3961 18.1023 44.3961 17.7561 44.1826 17.5426L43.9552 17.3152C43.7417 17.1017 43.3956 17.1017 43.1821 17.3152L43.1366 17.3607C42.8637 17.6336 42.6363 17.6336 42.3634 17.3607L42.3179 17.3152C42.0451 17.0423 41.6357 17.0423 41.3628 17.3152L41.3174 17.3607C41.0672 17.6108 40.7489 17.6563 40.476 17.3834L40.4532 17.3607C40.1803 17.0878 39.862 17.0878 39.5891 17.3607L38.634 18.3158Z" fill="black"/>
<path d="M24.7544 33.8301C24.8614 34.0636 25.0939 34.216 25.3803 34.216H28.1388C28.2081 34.216 28.2716 34.2083 28.3293 34.1937C28.4735 34.1464 28.5928 34.0552 28.6734 33.9337C28.7307 33.8304 28.7594 33.7041 28.7594 33.5634V33.4947C28.7594 33.0826 29.0697 32.7734 29.4835 32.7734H29.5525C29.9662 32.7734 30.2766 33.0826 30.2766 33.4947V33.5634C30.2766 33.9756 29.9662 34.2847 29.5525 34.2847H29.4835C29.1042 34.2847 28.8284 34.4908 28.8284 34.9029V34.9373C28.8284 35.2612 28.6793 35.4791 28.4146 35.5575C28.3324 35.5878 28.2378 35.6036 28.1319 35.6036H25.3045C24.8907 35.6036 24.6494 35.3632 24.6494 34.951V34.9167C24.6494 34.5045 24.3735 34.2984 23.9942 34.2984H23.9253C23.5115 34.2984 23.2012 33.9893 23.2012 33.5771V33.5085C23.2012 33.1235 23.4719 32.8284 23.8449 32.7911C23.8951 32.7796 23.9474 32.7734 24.0011 32.7734C24.1733 32.7734 24.3307 32.8363 24.4516 32.9402C24.6164 33.0699 24.7183 33.2723 24.7183 33.5085V33.5771C24.7183 33.6683 24.7303 33.7534 24.7544 33.8301Z" fill="#111111"/>
<path d="M26.2313 30.9184L26.2478 30.8954C26.428 30.6435 26.3646 30.283 26.1025 30.0954L25.8773 29.9343C25.5925 29.7305 25.3111 29.7727 25.1135 30.0489L25.097 30.0719C24.9167 30.3238 24.9801 30.6843 25.2423 30.8719L25.4674 31.033C25.7522 31.2368 26.0336 31.1946 26.2313 30.9184Z" fill="black"/>
<path d="M27.1554 30.9663L27.139 30.9433C26.9587 30.6913 27.0221 30.3309 27.2843 30.1433L27.5094 29.9822C27.7942 29.7784 28.0756 29.8206 28.2733 30.0968L28.2897 30.1198C28.47 30.3717 28.4066 30.7322 28.1444 30.9198L27.9193 31.0809C27.6345 31.2847 27.3531 31.2425 27.1554 30.9663Z" fill="black"/>
<path fill-rule="evenodd" clip-rule="evenodd" d="M15.1781 19.4925H15.2138C15.6421 19.4925 15.8562 19.2074 15.8562 18.8154V18.7441C15.8562 18.3165 16.1774 17.9958 16.6057 17.9958H16.677C17.0696 17.9958 17.3551 17.782 17.3551 17.3543V17.3187C17.3551 16.8911 17.605 16.6416 18.0332 16.6416H23.8149C24.2431 16.6416 24.4929 16.8911 24.4929 17.3187V17.3543C24.4929 17.782 24.7785 17.9958 25.171 17.9958H25.2424C25.6707 17.9958 25.9919 18.3165 25.9919 18.7441V18.8154C25.9919 19.2074 26.206 19.4925 26.6343 19.4925C27.0626 19.4925 27.2767 19.2074 27.2767 18.8154V18.7441C27.2767 18.3165 27.5979 17.9958 28.0262 17.9958H28.0975C28.4901 17.9958 28.7756 17.782 28.7756 17.3543V17.3187C28.7756 16.8911 29.0255 16.6416 29.4537 16.6416H35.2354C35.6636 16.6416 35.9135 16.8911 35.9135 17.3187V17.3543C35.9135 17.782 36.199 17.9958 36.5915 17.9958H36.6629C37.0912 17.9958 37.4124 18.3165 37.4124 18.7441V18.8154C37.4124 19.2074 37.6265 19.4925 38.0548 19.4925H38.0905C38.5188 19.4925 38.7686 19.742 38.7686 20.1696V27.3681C38.7686 27.7958 38.5188 28.0452 38.0905 28.0452H38.0548C37.6265 28.0452 37.4124 28.3303 37.4124 28.7223V28.7936C37.4124 29.2212 37.0912 29.5419 36.6629 29.5419H36.5915C36.199 29.5419 35.9135 29.7558 35.9135 30.1834V30.219C35.9135 30.6467 35.6636 30.8961 35.2354 30.8961H33.0583V35.4718C33.0583 35.8995 32.8085 36.1489 32.3802 36.1489H32.3445C31.9163 36.1489 31.7021 36.434 31.7021 36.826V36.8973C31.7021 37.3249 31.3809 37.6456 30.9527 37.6456H30.8813C30.4887 37.6456 30.2032 37.8595 30.2032 38.2871V38.3227C30.2032 38.7504 29.9534 38.9998 29.5251 38.9998H23.7435C23.3152 38.9998 23.0654 38.7504 23.0654 38.3227V38.2871C23.0654 37.8595 22.7799 37.6456 22.3873 37.6456H22.3159C21.8876 37.6456 21.5664 37.3249 21.5664 36.8973V36.826C21.5664 36.434 21.3523 36.1489 20.924 36.1489H20.8883C20.4601 36.1489 20.2103 35.8995 20.2103 35.4718V30.8961H18.0332C17.605 30.8961 17.3551 30.6467 17.3551 30.219V30.1834C17.3551 29.7558 17.0696 29.5419 16.677 29.5419H16.6057C16.1774 29.5419 15.8562 29.2212 15.8562 28.7936V28.7223C15.8562 28.3303 15.6421 28.0452 15.2138 28.0452H15.1781C14.7498 28.0452 14.5 27.7958 14.5 27.3681V20.1696C14.5 19.742 14.7498 19.4925 15.1781 19.4925ZM21.645 29.4707L21.6378 35.4362C21.6378 35.8638 21.9233 36.0776 22.3159 36.0776H22.3873C22.8156 36.0776 23.1368 36.3984 23.1368 36.826V36.8973C23.1368 37.2893 23.3509 37.5744 23.7792 37.5744H29.4894C29.9177 37.5744 30.1318 37.2893 30.1318 36.8973V36.826C30.1318 36.3984 30.453 36.0776 30.8813 36.0776H30.9527C31.3452 36.0776 31.6308 35.8638 31.6308 35.4362L31.6236 29.4707H35.1997C35.6279 29.4707 35.8421 29.1856 35.8421 28.7936V28.7223C35.8421 28.2947 36.1633 27.974 36.5915 27.974H36.6629C37.0555 27.974 37.341 27.7601 37.341 27.3325V20.2052C37.341 19.7776 37.0555 19.5638 36.6629 19.5638H36.5915C36.1633 19.5638 35.8421 19.2431 35.8421 18.8154V18.7441C35.8421 18.3521 35.6279 18.0671 35.1997 18.0671H29.4894C29.0611 18.0671 28.847 18.3521 28.847 18.7441V18.8154C28.847 19.2431 28.5258 19.5638 28.0975 19.5638H28.0262C27.6336 19.5638 27.3481 19.7776 27.3481 20.2052V20.7825C27.3481 21.1762 27.0285 21.4953 26.6343 21.4953C26.2401 21.4953 25.9205 21.1762 25.9205 20.7825V20.2052C25.9205 19.7776 25.635 19.5638 25.2424 19.5638H25.171C24.7428 19.5638 24.4216 19.2431 24.4216 18.8154V18.7441C24.4216 18.3521 24.2074 18.0671 23.7792 18.0671H18.0689C17.6406 18.0671 17.4265 18.3521 17.4265 18.7441V18.8154C17.4265 19.2431 17.1053 19.5638 16.677 19.5638H16.6057C16.2131 19.5638 15.9276 19.7776 15.9276 20.2052V27.3325C15.9276 27.7601 16.2131 27.974 16.6057 27.974H16.677C17.1053 27.974 17.4265 28.2947 17.4265 28.7223V28.7936C17.4265 29.1856 17.6406 29.4707 18.0689 29.4707H21.645Z" fill="black"/>
<rect x="29.1465" y="22.8682" width="10.9669" height="5.5188" rx="0.86" fill="black"/>
<rect x="13.1562" y="22.8682" width="10.9669" height="5.5188" fill="black"/>
<path fill-rule="evenodd" clip-rule="evenodd" d="M23.9465 28.9631C23.9465 29.3593 23.7175 29.5904 23.3248 29.5904H14.0967C13.704 29.5904 13.475 29.3593 13.475 28.9631V28.9301C13.475 28.5504 13.1968 28.2697 12.8205 28.2697H12.7878C12.3951 28.2697 12.166 28.0386 12.166 27.6424V23.6141C12.166 23.2179 12.3951 22.9868 12.7878 22.9868H12.8205C13.1968 22.9868 13.475 22.7061 13.475 22.3264V22.2933C13.475 21.8971 13.704 21.666 14.0967 21.666H23.3248C23.7175 21.666 23.9465 21.8971 23.9465 22.2933V22.3264C23.9465 22.6137 24.1059 22.8444 24.3465 22.9396H29.1362C29.3768 22.8444 29.5361 22.6137 29.5361 22.3264V22.2933C29.5361 21.8971 29.7651 21.666 30.1578 21.666H39.3859C39.7786 21.666 40.0077 21.8971 40.0077 22.2933V22.3264C40.0077 22.7061 40.2858 22.9868 40.6621 22.9868H40.6949C41.0876 22.9868 41.3166 23.2179 41.3166 23.6141V27.6424C41.3166 28.0386 41.0876 28.2697 40.6949 28.2697H40.6621C40.2858 28.2697 40.0077 28.5504 40.0077 28.9301V28.9631C40.0077 29.3593 39.7786 29.5904 39.3859 29.5904H30.1578C29.7651 29.5904 29.5361 29.3593 29.5361 28.9631V28.9301C29.5361 28.5504 29.2579 28.2697 28.8816 28.2697H28.8489C28.4562 28.2697 28.2271 28.0386 28.2271 27.6424V24.2839H25.2555V27.6424C25.2555 28.0386 25.0264 28.2697 24.6338 28.2697H24.601C24.2247 28.2697 23.9465 28.5504 23.9465 28.9301V28.9631ZM23.2921 28.2697C23.6684 28.2697 23.9465 27.989 23.9465 27.6093V23.6471C23.9465 23.2674 23.6684 22.9868 23.2921 22.9868H14.1294C13.7531 22.9868 13.475 23.2674 13.475 23.6471V27.6093C13.475 27.989 13.7531 28.2697 14.1294 28.2697H23.2921ZM39.3532 28.2697C39.7295 28.2697 40.0077 27.989 40.0077 27.6093V23.6471C40.0077 23.2674 39.7295 22.9868 39.3532 22.9868H30.1906C29.8143 22.9868 29.5361 23.2674 29.5361 23.6471V27.6093C29.5361 27.989 29.8143 28.2697 30.1906 28.2697H39.3532Z" fill="#FF0037"/>
<defs>
<linearGradient id="paint0_linear_574_3036" x1="-9.5" y1="-9.5" x2="63.9036" y2="4.85372" gradientUnits="userSpaceOnUse">
<stop stop-color="#232323"/>
<stop offset="1" stop-color="#D8D8D8"/>
</linearGradient>
</defs>
</svg>
