<svg width="389" height="194" viewBox="0 0 389 194" fill="none" xmlns="http://www.w3.org/2000/svg">
<path d="M362.301 105.226H363.611C379.33 105.226 388.5 114.367 388.5 130.037V191.482C388.5 207.152 379.33 216.293 363.611 216.293H362.301C346.582 216.293 338.723 226.74 338.723 241.104V243.716C338.723 259.386 326.933 271.138 311.214 271.138H308.594C294.185 271.138 283.705 278.973 283.705 294.643V295.949C283.705 311.619 274.536 320.76 258.817 320.76H130.183C114.464 320.76 105.295 311.619 105.295 295.949V294.643C105.295 278.973 94.8152 271.138 80.4059 271.138H77.786C62.0668 271.138 50.2775 259.386 50.2775 243.716V241.104C50.2775 226.74 42.4179 216.293 26.6987 216.293H25.3887C9.66953 216.293 0.5 207.152 0.5 191.482V130.037C0.5 114.367 9.66953 105.226 25.3887 105.226H26.6987C42.4179 105.226 50.2775 94.7796 50.2775 80.4155V77.8038C50.2775 62.1338 62.0668 50.3814 77.786 50.3814H80.4059C94.8152 50.3814 105.295 42.5464 105.295 26.8764V25.5706C105.295 9.9006 114.464 0.759766 130.183 0.759766H258.817C274.536 0.759766 283.705 9.9006 283.705 25.5706V26.8764C283.705 42.5464 294.185 50.3814 308.594 50.3814H311.214C326.933 50.3814 338.723 62.1338 338.723 77.8038V80.4155C338.723 94.7796 346.582 105.226 362.301 105.226Z" fill="#FDB75F"/>
</svg>
