<svg width="295" height="227" viewBox="0 0 295 227" fill="none" xmlns="http://www.w3.org/2000/svg">
<path d="M274.648 63.089H275.641C287.552 63.089 294.5 70.0303 294.5 81.9297V128.59C294.5 140.489 287.552 147.431 275.641 147.431H274.648C262.737 147.431 256.782 155.363 256.782 166.271V168.254C256.782 180.154 247.849 189.078 235.938 189.078H233.953C223.034 189.078 215.094 195.028 215.094 206.927V207.919C215.094 219.818 208.146 226.76 196.235 226.76H98.7652C86.8543 226.76 79.9062 219.818 79.9062 207.919V206.927C79.9062 195.028 71.9656 189.078 61.0473 189.078H59.0621C47.1512 189.078 38.218 180.154 38.218 168.254V166.271C38.218 155.363 32.2625 147.431 20.3516 147.431H19.359C7.44805 147.431 0.5 140.489 0.5 128.59V81.9297C0.5 70.0303 7.44805 63.089 19.359 63.089H20.3516C32.2625 63.089 38.218 55.1561 38.218 44.2483V42.2651C38.218 30.3657 47.1512 21.4412 59.0621 21.4412H61.0473C71.9656 21.4412 79.9062 15.4915 79.9062 3.59209V2.60046C79.9062 -9.29892 86.8543 -16.2402 98.7652 -16.2402H196.235C208.146 -16.2402 215.094 -9.29892 215.094 2.60046V3.59209C215.094 15.4915 223.034 21.4412 233.953 21.4412H235.938C247.849 21.4412 256.782 30.3657 256.782 42.2651V44.2483C256.782 55.1561 262.737 63.089 274.648 63.089Z" fill="#FDB75F"/>
</svg>
