<svg width="33" height="33" viewBox="0 0 33 33" fill="none" xmlns="http://www.w3.org/2000/svg">
<path d="M9.83268 30.0928H23.166C24.2269 30.0928 25.2443 29.6713 25.9944 28.9212C26.7446 28.1711 27.166 27.1536 27.166 26.0928V7.42611C27.166 6.36524 26.7446 5.34783 25.9944 4.59768C25.2443 3.84754 24.2269 3.42611 23.166 3.42611H9.83268C8.77182 3.42611 7.7544 3.84754 7.00425 4.59768C6.25411 5.34783 5.83268 6.36524 5.83268 7.42611V26.0928C5.83268 27.1536 6.25411 28.1711 7.00425 28.9212C7.7544 29.6713 8.77182 30.0928 9.83268 30.0928ZM8.49935 7.42611C8.49935 7.07249 8.63982 6.73335 8.88987 6.4833C9.13992 6.23325 9.47906 6.09278 9.83268 6.09278H23.166C23.5196 6.09278 23.8588 6.23325 24.1088 6.4833C24.3589 6.73335 24.4993 7.07249 24.4993 7.42611V26.0928C24.4993 26.4464 24.3589 26.7855 24.1088 27.0356C23.8588 27.2856 23.5196 27.4261 23.166 27.4261H9.83268C9.47906 27.4261 9.13992 27.2856 8.88987 27.0356C8.63982 26.7855 8.49935 26.4464 8.49935 26.0928V7.42611Z" fill="white"/>
<path d="M16.5 8.75977C15.3954 8.75977 14.5 9.6552 14.5 10.7598C14.5 11.8643 15.3954 12.7598 16.5 12.7598C17.6046 12.7598 18.5 11.8643 18.5 10.7598C18.5 9.6552 17.6046 8.75977 16.5 8.75977Z" fill="white"/>
<path d="M13.166 24.7598H19.8327C20.1863 24.7598 20.5254 24.6193 20.7755 24.3692C21.0255 24.1192 21.166 23.7801 21.166 23.4264C21.166 23.0728 21.0255 22.7337 20.7755 22.4836C20.5254 22.2336 20.1863 22.0931 19.8327 22.0931H13.166C12.8124 22.0931 12.4733 22.2336 12.2232 22.4836C11.9732 22.7337 11.8327 23.0728 11.8327 23.4264C11.8327 23.7801 11.9732 24.1192 12.2232 24.3692C12.4733 24.6193 12.8124 24.7598 13.166 24.7598Z" fill="white"/>
</svg>
