<svg width="13" height="12" viewBox="0 0 13 12" fill="none" xmlns="http://www.w3.org/2000/svg">
<g clip-path="url(#clip0_922_2710)">
<path d="M10.8301 10.1812C10.7135 10.2962 10.5629 10.3706 10.4007 10.3935C10.2386 10.4164 10.0733 10.3865 9.92938 10.3083L9.92047 10.3035L6.49975 8.37933L3.07903 10.3035L3.07012 10.3083C2.92619 10.3864 2.76095 10.4163 2.59877 10.3934C2.4366 10.3705 2.28607 10.2961 2.16938 10.1812L2.1591 10.1709C2.04447 10.0584 1.96821 9.91263 1.94115 9.75431C1.91409 9.596 1.9376 9.43318 2.00834 9.28899L5.79944 1.02739C5.80049 1.02489 5.80175 1.02248 5.80321 1.02019C5.86682 0.88977 5.96576 0.779819 6.08878 0.702848C6.21179 0.625876 6.35394 0.584975 6.49905 0.584796C6.64416 0.584618 6.7864 0.625169 6.90961 0.701838C7.03281 0.778507 7.13202 0.888214 7.19596 1.01848L7.19973 1.02568L10.9912 9.28899C11.063 9.43543 11.0861 9.60101 11.0571 9.76152C11.0282 9.92204 10.9486 10.0691 10.8301 10.1812Z" fill="#FDB75F"/>
</g>
<defs>
<clipPath id="clip0_922_2710">
<rect width="12" height="12" fill="white" transform="translate(0.5)"/>
</clipPath>
</defs>
</svg>
