<svg width="33" height="32" viewBox="0 0 33 32" fill="none" xmlns="http://www.w3.org/2000/svg">
<path d="M1.25537 31.4182C1.4751 31.6379 1.76294 31.7477 2.05078 31.7477C2.33862 31.7477 2.62646 31.6379 2.84619 31.4182L32.0929 2.17145C32.5323 1.73199 32.5323 1.02008 32.0929 0.580627C31.6534 0.141174 30.9415 0.141174 30.5021 0.580627L24.3925 6.69019C23.6809 5.87487 22.9312 5.04842 22.1113 4.20941C21.1159 3.19592 20.0645 2.18188 18.8917 1.10413C17.6277 -0.0401 15.7216 -0.0401 14.4554 1.10522C10.1713 4.99603 2.98407 12.3717 2.98407 18.0577C2.98407 19.4101 3.17853 20.735 3.5603 21.9913C3.96398 23.3407 4.56974 24.5919 5.34812 25.7346L1.25537 29.8273C0.815918 30.2668 0.815918 30.9787 1.25537 31.4182ZM5.71417 21.3415C5.39557 20.2928 5.23407 19.1882 5.23407 18.0577C5.23407 14.5893 9.24683 8.87476 15.9672 2.77185C16.3687 2.40601 16.9768 2.40601 17.3751 2.76636C18.5138 3.81226 19.5377 4.80048 20.504 5.78375C21.332 6.631 22.0868 7.4648 22.798 8.28472L10.3074 20.7753C9.9402 19.9186 9.73352 19.0017 9.73352 18.0577C9.73352 17.4364 9.2298 16.9327 8.60852 16.9327C7.98724 16.9327 7.48352 17.4364 7.48352 18.0577C7.48352 19.6076 7.89125 21.1032 8.63036 22.4523L6.97142 24.1113C6.43611 23.2561 6.0106 22.3318 5.71417 21.3415Z" fill="black"/>
</svg>
